# Blender v2.79 (sub 0) OBJ File: ''
# www.blender.org
mtllib wall.mtl
o Plane
v -0.500000 0.000000 0.000000
v 0.500000 0.000000 0.000000
v -0.500000 1.000000 -0.000000
v 0.500000 1.000000 -0.000000
v -0.500000 0.000000 -0.050000
v 0.500000 0.000000 -0.050000
v -0.500000 1.000000 -0.050000
v 0.500000 1.000000 -0.050000
vn 0.0000 0.0000 1.0000
vn 0.0000 -0.0000 -1.0000
vn -1.0000 0.0000 0.0000
vn 0.0000 -1.0000 0.0000
vn 1.0000 0.0000 0.0000
vn 0.0000 1.0000 0.0000
usemtl None
s off
f 2//1 3//1 1//1
f 2//1 4//1 3//1
f 6//2 5//2 7//2
f 6//2 7//2 8//2
f 3//3 5//3 1//3
f 1//4 6//4 2//4
f 2//5 8//5 4//5
f 4//6 7//6 3//6
f 3//3 7//3 5//3
f 1//4 5//4 6//4
f 2//5 6//5 8//5
f 4//6 8//6 7//6
